<?xml version="1.0" encoding="UTF-8" standalone="no"?>
<!-- Created with Inkscape (http://www.inkscape.org/) -->

<svg
   xmlns:dc="http://purl.org/dc/elements/1.1/"
   xmlns:cc="http://creativecommons.org/ns#"
   xmlns:rdf="http://www.w3.org/1999/02/22-rdf-syntax-ns#"
   xmlns:svg="http://www.w3.org/2000/svg"
   xmlns="http://www.w3.org/2000/svg"
   xmlns:sodipodi="http://sodipodi.sourceforge.net/DTD/sodipodi-0.dtd"
   xmlns:inkscape="http://www.inkscape.org/namespaces/inkscape"
   version="1.1"
   id="svg64"
   width="198"
   height="198"
   viewBox="0 0 198 198"
   sodipodi:docname="shroom_sharp.svg"
   inkscape:version="0.92.2 5c3e80d, 2017-08-06">
  <metadata
     id="metadata70">
    <rdf:RDF>
      <cc:Work
         rdf:about="">
        <dc:format>image/svg+xml</dc:format>
        <dc:type
           rdf:resource="http://purl.org/dc/dcmitype/StillImage" />
        <dc:title></dc:title>
      </cc:Work>
    </rdf:RDF>
  </metadata>
  <defs
     id="defs68" />
  <sodipodi:namedview
     pagecolor="#ffffff"
     bordercolor="#666666"
     borderopacity="1"
     objecttolerance="10"
     gridtolerance="10"
     guidetolerance="10"
     inkscape:pageopacity="0"
     inkscape:pageshadow="2"
     inkscape:window-width="1440"
     inkscape:window-height="796"
     id="namedview66"
     showgrid="false"
     inkscape:zoom="2.9242424"
     inkscape:cx="99"
     inkscape:cy="99"
     inkscape:window-x="0"
     inkscape:window-y="0"
     inkscape:window-maximized="0"
     inkscape:current-layer="g174" />
  <g
     id="g174"
     transform="translate(0.1865318,-0.4455958)">
    <path
       style="fill:#fdfdfd"
       d="M 0,99 V 0 h 99 99 v 99 99 H 99 0 Z"
       id="path178"
       inkscape:connector-curvature="0" />
    <path
       style="fill:#077816"
       d="M 91.762707,86.434683 C 90.257196,85.6178 88.747013,83.840199 88.406743,82.484458 87.714353,79.725755 88.272419,73.419353 89.445148,70.75 c 0.62963,-1.433155 0.25156,-1.758696 -2.088159,-1.798032 -7.236043,-0.121652 -14.376665,-7.020596 -14.335027,-13.849851 0.03229,-5.29649 3.122346,-11.21383 8.065354,-15.444861 15.43633,-13.212924 42.152504,-4.869201 43.687774,13.64412 0.58527,7.057633 -1.38304,10.846333 -7.06354,13.596212 C 115.3229,68.053915 112.33684,69 111.07587,69 c -1.97345,0 -2.20124,0.364352 -1.63595,2.616663 1.53302,6.108021 1.64826,8.033813 0.6392,10.681706 -1.9323,5.070605 -12.285547,7.408632 -18.316413,4.136314 z M 107,84 c 2.22239,-2.222395 2.65462,-7.469161 0.92756,-11.259641 -0.99883,-2.192204 -1.59654,-2.344363 -8.70872,-2.217019 -7.434855,0.133121 -7.669154,0.21375 -8.882457,3.056694 C 88.496086,77.892113 88.741224,81.741224 91,84 c 1.555556,1.555556 3.333333,2 8,2 4.66667,0 6.44444,-0.444444 8,-2 z m -2.56627,-18.151757 c 1.3903,-0.633466 2.80859,-2.036355 3.15174,-3.117531 1.94955,-6.142482 -12.537848,-8.425246 -15.721163,-2.477168 -0.967548,1.807881 -0.739538,2.457027 1.556825,4.432276 2.936446,2.525824 7.064038,2.961507 11.012598,1.162423 z m 19.19383,-11.755886 c -0.69136,-4.260366 -3.10871,-7.011206 -4.73345,-5.386465 -0.6161,0.616098 -1.34365,3.10283 -1.61679,5.526071 -0.3806,3.376685 -0.0756,4.826904 1.30568,6.208177 1.73637,1.736377 1.87181,1.716417 3.70366,-0.545825 1.38663,-1.712412 1.74965,-3.283158 1.3409,-5.801958 z M 86.925946,55.58923 c 2.351091,-2.832892 2.39411,-7.912627 0.0918,-10.839543 C 84.349668,41.357778 82.618855,41.290236 79.454545,44.454545 76.751342,47.157749 76.035097,53.635097 78.2,55.8 c 1.648134,1.648134 7.29642,1.511703 8.725946,-0.21077 z m 24.245314,-9.244218 c 2.50666,-2.268495 2.2922,-4.972458 -0.62581,-7.890467 -3.25624,-3.256244 -8.78868,-3.373068 -10.988746,-0.232039 -2.135695,3.049133 -1.962379,4.462728 0.897846,7.322949 2.89649,2.896498 7.98048,3.275807 10.71671,0.799557 z"
       id="path176"
       inkscape:connector-curvature="0" />
  </g>
</svg>
